# xmcd
#
# Track frame offsets:
#  150
#  8340
#  16472
#  27715
#  37590
#  49042
#  60622
#  71777
#  83075
#  94755
#  103580
#  117490
#  125227
#  137265
#  144327
#  154850
#  165017
#  175110
#  185225
#  195652
#  207375
#  211282
#  222280
#  229800
#  231320
#  244287
#  255765
#  267485
#  270692
#  281852
#  293987
#  305657
#  318537
#
# Disc length: 4395 seconds
#
# Revision: 1
# Processed by: cddbd v1.5.2PL0 Copyright (c) Steve Scherf et al.
# Submitted via: Collectorz.com_Music_Collector 6.11
#
DISCID=e7112921
DTITLE=Johnny Cash - The Outtakes (3 CDs) [D] [CD 1)
DYEAR=2007
DGENRE=
TTITLE0=Wide Open Road
TTITLE1=You're My Baby (Little Woolly Booger) (False Starts and Complete Take)
TTITLE2=My Treasure (False Starts and Complete Take)
TTITLE3=Hey Porter
TTITLE4=Folsom Prison Blues
TTITLE5=Folsom Prison Blues
TTITLE6=Folsom Prison Blues
TTITLE7=Folsom Prison Blues
TTITLE8=Wide Open Road
TTITLE9=My Two Timin' Woman
TTITLE10=Cry, Cry, Cry (Extended Version)
TTITLE11=Rock And Roll Ruby
TTITLE12=I Walk The Line
TTITLE13=Brakeman's Blues (Incomplete Take)
TTITLE14=Get Rhythm (False Start and Complete Take)
TTITLE15=Get Rhythm
TTITLE16=Get Rhythm (Microphone Test)
TTITLE17=Get Rhythm
TTITLE18=Train Of Love
TTITLE19=Train Of Love
TTITLE20=One More Ride (Incomplete Take)
TTITLE21=I Love You Because
TTITLE22=Don't Make Me Go (Incomplete Take)
TTITLE23=Don't Make Me Go (False Start)
TTITLE24=Don't Make Me Go (False Start and Complete Take)
TTITLE25=Don't Make Me Go
TTITLE26=Don't Make Me Go
TTITLE27=Don't Make Me Go (False Start)
TTITLE28=Don't Make Me Go
TTITLE29=Don't Make Me Go
TTITLE30=Don't Make Me Go
TTITLE31=Don't Make Me Go
TTITLE32=Don't Make Me Go
EXTD=
EXTT0=
EXTT1=
EXTT2=
EXTT3=
EXTT4=
EXTT5=
EXTT6=
EXTT7=
EXTT8=
EXTT9=
EXTT10=
EXTT11=
EXTT12=
EXTT13=
EXTT14=
EXTT15=
EXTT16=
EXTT17=
EXTT18=
EXTT19=
EXTT20=
EXTT21=
EXTT22=
EXTT23=
EXTT24=
EXTT25=
EXTT26=
EXTT27=
EXTT28=
EXTT29=
EXTT30=
EXTT31=
EXTT32=
PLAYORDER=
